<svg xmlns="http://www.w3.org/2000/svg" viewBox="0 0 54 68.22"><defs><style>.cls-1{fill:#2c3136;}</style></defs><g id="Layer_2" data-name="Layer 2"><g id="Layer_1-2" data-name="Layer 1"><path class="cls-1" d="M29.44,54a.74.74,0,0,0-.91-.26,2,2,0,0,0-1,1.61c.79-.64,1.82-.55,1.91-1.35"/><path class="cls-1" d="M28.83,52.2c.14-.69.3-1.36.5-2,.75.21,1.05-1.3,3-1.39,9.19-.44,14.54-3.22,14.79-12.44,0-.42.78-.65,1.34-1.4a28.21,28.21,0,0,0-9.35,1.85,18.41,18.41,0,0,1,6.55-2.56c-9.07.63-16.63,8.8-16.8,18M45.68,36.7c-2.17,3.39-10.75,1.84-15,10.63,3-6.55,7.68-9.8,15-10.63"/><path class="cls-1" d="M8.37,34.23a18.41,18.41,0,0,1,6.55,2.56,28.21,28.21,0,0,0-9.35-1.85c.56.75,1.33,1,1.34,1.4.25,9.22,5.6,12,14.79,12.44,1.92.09,2.21,1.6,3,1.39.2.67.36,1.34.5,2C25,43,17.44,34.86,8.37,34.23m0,2.47c7.3.83,12,4.08,15,10.63-4.23-8.79-12.81-7.24-15-10.63"/><path class="cls-1" d="M24.56,54c.09.8,1.12.71,1.91,1.35a2,2,0,0,0-1-1.61.74.74,0,0,0-.91.26"/><path class="cls-1" d="M53.08,21.21C49.82,7.86,40,.73,28.93,0c9.91,1.12,19,7.78,22,21,.11.5.22,1,.31,1.52.15,4.68-2.08,2.46-3-.81C47.1,14.22,45.82,9.85,38.67,4.56c5.83,5.72,7,10.13,7.18,18.83,0,.53.9,1.37,1.46,2,1.44,1.69,6.89,5.51,3.4,8,.43-.87,1.49-3.1-1.94-5.61a8.29,8.29,0,0,1,.8,2.43h0a4.65,4.65,0,0,1-.14,2.07l-.17,2.36-2,8c.12.52.26,1.07.43,1.65.39,1.29-.53,2.05-1.85,2.86a1.45,1.45,0,0,1,.16-.18c-3.37,1-6,4.22-9.2,5.19-2.32,2.66-1.42,4.8-4.37,8.6,3.86-3.64,2.67-5.13,4.85-7.17a16.82,16.82,0,0,0,2.91-1.42,9.06,9.06,0,0,0-.37,3.51c0,1.68-4.71,4.33-6.62,5.68-3.6,2.54-2.8,5.65-6.15,5.65h0c-3.35,0-2.55-3.11-6.14-5.65-1.92-1.35-6.6-4-6.63-5.68a9.06,9.06,0,0,0-.37-3.51,16.82,16.82,0,0,0,2.91,1.42c2.18,2,1,3.53,4.85,7.17-2.95-3.8-2.05-5.94-4.37-8.6-3.23-1-5.83-4.24-9.2-5.19l.16.18C6.88,46.45,6,45.69,6.36,44.4c.17-.58.31-1.13.43-1.65l-2-8-.17-2.36a4.65,4.65,0,0,1-.14-2.07h0a8.29,8.29,0,0,1,.8-2.43C1.8,30.37,2.86,32.6,3.29,33.47c-3.49-2.54,2-6.36,3.4-8,.56-.66,1.44-1.5,1.46-2,.18-8.7,1.35-13.11,7.18-18.83C8.18,9.85,6.9,14.22,5.71,21.68c-.88,3.27-3.11,5.49-3,.81.1-.51.2-1,.31-1.52,3-13.19,12.1-19.85,22-21C14,.73,4.18,7.86.92,21.21A35.29,35.29,0,0,0,.12,32.3c.29,3.74,4.73,6,4.39,12.61-.2,3.88,9.08,3.1,8.58,11.53-.1,1.69,5.13,4.38,7.22,5.75,3.91,2.56,1.86,5.94,6.69,6h0c4.83-.09,2.77-3.47,6.69-6,2.09-1.37,7.32-4.06,7.22-5.75-.5-8.43,8.78-7.65,8.58-11.53-.34-6.6,4.1-8.87,4.39-12.61a35.29,35.29,0,0,0-.8-11.09"/><path class="cls-1" d="M38.78,68.22a2.13,2.13,0,1,1,2.13-2.13,2.13,2.13,0,0,1-2.13,2.13m0-4a1.82,1.82,0,1,0,1.8,1.82,1.81,1.81,0,0,0-1.8-1.82m.52,3-.54-1h-.35v1h-.33V64.92h.8a.71.71,0,0,1,.74.7.66.66,0,0,1-.5.64l.55,1Zm-.46-2.06h-.43V66h.43a.41.41,0,0,0,.45-.4.42.42,0,0,0-.45-.42"/></g></g></svg>